Coordinates
version=1
nRows=10
nColumns=63
inDegrees=yes

Units are S.I. units (second, meters, Newtons, ...)
If the header above contains a line with 'inDegrees', this indicates whether rotational values are in degrees (yes) or radians (no).

endheader
time	pelvis_tilt	pelvis_list	pelvis_rotation	pelvis_tx	pelvis_ty	pelvis_tz	hip_flexion_r	hip_adduction_r	hip_rotation_r	knee_angle_r	knee_angle_r_beta	ankle_angle_r	subtalar_angle_r	mtp_angle_r	hip_flexion_l	hip_adduction_l	hip_rotation_l	knee_angle_l	knee_angle_l_beta	ankle_angle_l	subtalar_angle_l	mtp_angle_l	L5_S1_Flex_Ext	L5_S1_Lat_Bending	L5_S1_axial_rotation	L4_L5_Flex_Ext	L4_L5_Lat_Bending	L4_L5_axial_rotation	L3_L4_Flex_Ext	L3_L4_Lat_Bending	L3_L4_axial_rotation	L2_L3_Flex_Ext	L2_L3_Lat_Bending	L2_L3_axial_rotation	L1_L2_Flex_Ext	L1_L2_Lat_Bending	L1_L2_axial_rotation	L1_T12_Flex_Ext	L1_T12_Lat_Bending	L1_T12_axial_rotation	Abs_r3	Abs_r2	Abs_r1	Abs_t1	Abs_t2	neck_flexion	neck_bending	neck_rotation	arm_flex_r	arm_add_r	arm_rot_r	elbow_flex_r	pro_sup_r	wrist_flex_r	wrist_dev_r	arm_flex_l	arm_add_l	arm_rot_l	elbow_flex_l	pro_sup_l	wrist_flex_l	wrist_dev_l
      3.07843137	    -11.87573693	    -29.09837031	     73.76087793	      0.16407229	      0.95223186	      0.43131522	     40.85285175	     -7.33710549	      8.28619910	     26.34182817	      0.45975163	     28.89230451	      3.39528472	      0.00000000	     32.33746323	      2.32154244	    -23.29945842	     14.61543598	      0.25508748	     27.45264794	     11.61522246	      0.00000000	     -0.41756618	     -0.44909962	     -1.09686871	     -0.77546216	     -0.59730250	     -1.16542300	     -0.68601948	     -1.09194082	     -1.16542300	     -0.47723639	     -1.09194082	     -0.95976012	     -0.38775196	     -0.91580395	     -0.89120582	     -0.23859732	     -0.69565531	     -0.82265153	     -2.98263348	     -5.08030474	     -6.10045468	      0.00000000	      0.00000000	      7.47993029	     -4.03990472	     16.15993570	     81.88015082	      5.59532034	    199.26233978	      0.32422395	      0.90719484	    -10.07065549	    -23.86982223	     67.44408837	    -47.70538764	     76.51975099	     58.59225850	     89.20477613	     13.36690065	     23.72887172
      3.09803922	    -11.63067912	    -28.58418017	     73.61888493	      0.16410062	      0.95274710	      0.43187096	     40.08559879	     -7.32209834	      7.89329951	     25.81413942	      0.45054173	     29.12832987	      4.41945904	      0.00000000	     31.81485085	      2.22114511	    -22.88928109	     14.71066341	      0.25674951	     27.36392427	     10.63844398	      0.00000000	     -0.47091813	     -0.40686490	     -1.54237410	     -0.87454207	     -0.54113032	     -1.63877248	     -0.77367140	     -0.98925132	     -1.63877248	     -0.53821233	     -0.98925132	     -1.34957734	     -0.43729458	     -0.82967891	     -1.25317896	     -0.26908262	     -0.63023373	     -1.15678058	     -3.36372113	     -4.60253713	     -8.57822205	      0.00000000	      0.00000000	      7.83109583	     -4.36218152	     18.74238785	     84.54526406	      8.76714654	    200.68343985	      0.27852967	      0.95121426	    -20.60008553	    -23.89278186	     64.46329257	    -50.69466964	     72.87124645	     59.69535100	     89.21891754	     15.95109366	     24.75303535
      3.11764706	    -11.26119877	    -28.11497812	     73.42795075	      0.16382652	      0.95335952	      0.43228363	     39.39581583	     -7.12443946	      7.66998345	     25.34385885	      0.44233378	     29.34965285	      5.34169142	      0.00000000	     31.26820956	      1.98980269	    -22.64320048	     14.67869858	      0.25619162	     27.40335001	      9.95246143	      0.00000000	     -0.52607990	     -0.33979301	     -1.97925124	     -0.97698298	     -0.45192470	     -2.10295444	     -0.86429666	     -0.82617272	     -2.10295444	     -0.60125671	     -0.82617272	     -1.73184483	     -0.48851779	     -0.69290590	     -1.60814163	     -0.30060205	     -0.52633937	     -1.48443843	     -3.75773610	     -3.84380647	    -11.00800162	      0.00000000	      0.00000000	      8.37060217	     -4.62778520	     21.72314285	     87.58953187	     11.87485167	    200.90719882	      0.23764360	      1.03696185	    -36.04874724	    -23.68097486	     60.23050463	    -53.74328621	     68.17338768	     61.13452075	     89.25204269	     17.23808847	     25.35030595
      3.13725490	    -10.77141565	    -27.72330446	     73.39093756	      0.16291341	      0.95403813	      0.43263842	     38.80456895	     -6.88164503	      7.43625998	     24.98647749	      0.43609630	     29.54665066	      6.07542094	      0.00000000	     30.78155805	      1.73231456	    -22.31812357	     14.56677050	      0.25423811	     27.54875572	      9.48318710	      0.00000000	     -0.59018793	     -0.24816058	     -2.43154332	     -1.09603801	     -0.33005357	     -2.58351478	     -0.96961975	     -0.60337763	     -2.58351478	     -0.67452579	     -0.60337763	     -2.12760041	     -0.54804851	     -0.50604905	     -1.97562895	     -0.33723338	     -0.38440073	     -1.82365749	     -4.21565337	     -2.80724208	    -13.52351450	      0.00000000	      0.00000000	      9.07995813	     -4.58363191	     25.03249831	     91.37387416	     15.07461334	    199.14623053	      0.20091463	      1.18422104	    -50.06874252	    -22.96069252	     54.80788516	    -56.59980945	     62.37442030	     62.77493140	     89.29200460	     17.65111041	     25.59908953
      3.15686275	    -10.70229333	    -27.20382946	     72.99296068	      0.16255126	      0.95479923	      0.43316358	     38.44412707	     -6.81328752	      7.66566240	     24.95768490	      0.43559378	     29.76797910	      6.53840079	      0.00000000	     30.17819728	      1.77468640	    -22.42796854	     14.20278990	      0.24788545	     27.67591969	      9.17844417	      0.00000000	     -0.64801241	     -0.21442999	     -2.84826509	     -1.20342384	     -0.28519189	     -3.02628165	     -1.06461959	     -0.52136508	     -3.02628165	     -0.74061338	     -0.52136508	     -2.49223195	     -0.60174432	     -0.43726563	     -2.31421538	     -0.37027429	     -0.33215205	     -2.13619881	     -4.62868783	     -2.42567492	    -15.84119593	      0.00000000	      0.00000000	      9.43903057	     -3.93641740	     28.37037004	     95.64884366	     18.42908991	    194.33085633	      0.17371369	      1.37933324	    -59.05282394	    -22.19050941	     49.14147789	    -59.60320413	     57.22354293	     64.63904643	     89.32802952	     15.86601801	     24.56792819
      3.17647059	     -9.89419013	    -27.13036715	     73.28169020	      0.16074099	      0.95541277	      0.43293188	     37.97781258	     -6.39340936	      7.13057193	     24.53694791	      0.42825053	     29.71324179	      6.98263279	      0.00000000	     29.96707376	      1.29341577	    -21.94002949	     14.13322662	      0.24667134	     28.06879817	      9.04643582	      0.00000000	     -0.70149062	     -0.05447627	     -3.39440783	     -1.30273823	     -0.07245344	     -3.60655832	     -1.15247894	     -0.13245361	     -3.60655832	     -0.80173363	     -0.13245361	     -2.97010685	     -0.65140419	     -0.11108802	     -2.75795636	     -0.40083174	     -0.08438375	     -2.54580587	     -5.01067733	     -0.61624650	    -18.87867804	      0.00000000	      0.00000000	      9.93790950	     -3.79738999	     32.90061689	    100.55317986	     22.25217421	    191.19003226	      0.14872445	      1.44789727	    -63.83756237	    -19.42390071	     37.00479085	    -61.20950140	     42.68494721	     66.87917501	     89.39749630	     15.86324712	     25.64422705
      3.19607843	     -9.71084594	    -26.70920957	     73.03616094	      0.16027639	      0.95615446	      0.43322782	     37.72324095	     -6.22824441	      7.35537352	     24.65869872	      0.43037548	     29.74832434	      7.13881658	      0.00000000	     29.50254103	      1.21213029	    -22.10112017	     13.94798544	      0.24343827	     28.32803183	      9.06012539	      0.00000000	     -0.75412580	      0.00192922	     -3.74167758	     -1.40048703	      0.00256587	     -3.97553243	     -1.23895328	      0.00469072	     -3.97553243	     -0.86189038	      0.00469072	     -3.27396788	     -0.70028122	      0.00393408	     -3.04011303	     -0.43090748	      0.00298837	     -2.80625819	     -5.38664521	      0.02182378	    -20.81008820	      0.00000000	      0.00000000	      9.96120997	     -3.54633518	     35.80738444	    105.32786708	     25.09762488	    187.66391726	      0.13188097	      1.57954912	    -66.63698646	    -16.15163939	     28.06314011	    -62.16465415	     33.32742880	     68.56243471	     89.44021536	     12.68875330	     24.39713774
      3.21568627	     -9.55242152	    -26.22926365	     72.79051853	      0.15982722	      0.95674128	      0.43353674	     37.55037193	     -6.08519985	      7.59556735	     25.04403448	      0.43710086	     29.76338591	      7.30937283	      0.00000000	     29.03519410	      1.16311527	    -22.15343590	     13.90081958	      0.24261507	     28.60008571	      8.85775787	      0.00000000	     -0.79945526	      0.06220765	     -3.96834263	     -1.48466836	      0.08273618	     -4.21636404	     -1.31342504	      0.15125168	     -4.21636404	     -0.91369741	      0.15125168	     -3.47229980	     -0.74237415	      0.12685384	     -3.22427838	     -0.45680873	      0.09635965	     -2.97625697	     -5.71042896	      0.70370540	    -22.07073118	      0.00000000	      0.00000000	      9.97314115	     -3.95555619	     37.45138144	    109.85194337	     27.01733776	    184.78788970	      0.12014386	      1.62720855	    -68.21279256	    -14.66255845	     20.77427893	    -62.12381598	     26.02617507	     69.53491943	     89.45720773	      8.64758140	     21.98738774
      3.23529412	     -9.08996657	    -25.86393478	     72.90944947	      0.15855586	      0.95699306	      0.43350778	     37.37333626	     -5.82688191	      7.62165840	     25.53244591	      0.44562525	     29.77418529	      7.41596956	      0.00000000	     28.66990878	      0.96383195	    -21.77036109	     14.03432199	      0.24494513	     28.89577751	      8.46824217	      0.00000000	     -0.83346120	      0.18627474	     -4.12160470	     -1.54782079	      0.24774541	     -4.37920499	     -1.36929340	      0.45290841	     -4.37920499	     -0.95256280	      0.45290841	     -3.60640411	     -0.77395207	      0.37985145	     -3.34880382	     -0.47623973	      0.28853957	     -3.09120352	     -5.95333000	      2.10717713	    -22.92312884	      0.00000000	      0.00000000	     10.22612957	     -5.23610020	     37.89761364	    113.88649864	     28.13067005	    182.52047488	      0.11157452	      1.51996740	    -69.04895063	    -16.62461225	     15.87029391	    -61.06292363	     21.35833624	     69.53948145	     89.43656930	      4.79434122	     19.09278839
      3.25490196	     -8.47568201	    -25.64702200	     73.17288284	      0.15676973	      0.95672435	      0.43325401	     37.30799099	     -5.49212428	      7.43264732	     26.12469367	      0.45596192	     29.85130068	      7.50204212	      0.00000000	     28.49086581	      0.64939509	    -21.01390333	     14.39812927	      0.25129476	     29.24500247	      7.72054473	      0.00000000	     -0.85506142	      0.35811518	     -4.17251458	     -1.58793456	      0.47629319	     -4.43329674	     -1.40478040	      0.87072125	     -4.43329674	     -0.97724969	      0.87072125	     -3.65095026	     -0.79401003	      0.73026847	     -3.39016810	     -0.48858209	      0.55472041	     -3.12938594	     -6.10761820	      4.05107052	    -23.20627435	      0.00000000	      0.00000000	     10.80930284	     -7.02139431	     37.73312436	    117.45775156	     28.71983570	    180.78882182	      0.10533917	      1.27354460	    -69.41807336	    -20.83822945	     13.17687977	    -59.36000926	     18.74091980	     68.96714233	     89.37929521	      2.42148523	     16.43640018
